<?xml version="1.0" standalone="no"?>
<!DOCTYPE svg PUBLIC "-//W3C//DTD SVG 20010904//EN"
 "http://www.w3.org/TR/2001/REC-SVG-20010904/DTD/svg10.dtd">
<svg version="1.0" xmlns="http://www.w3.org/2000/svg"
 width="220.000000pt" height="220.000000pt" viewBox="0 0 220.000000 220.000000"
 preserveAspectRatio="xMidYMid meet">
<metadata>
Created by potrace 1.13, written by Peter Selinger 2001-2015
</metadata>
<g transform="translate(0.000000,220.000000) scale(0.100000,-0.100000)"
fill="#000000" stroke="none">
<path d="M383 1314 l-143 -75 0 -157 0 -157 143 -76 142 -76 3 153 c1 85 1
224 0 309 l-3 154 -142 -75z"/>
<path d="M1640 1080 l0 -312 23 14 c12 8 73 43 135 78 l112 64 0 156 0 155
-102 60 c-57 32 -118 68 -135 78 l-33 19 0 -312z"/>
<path d="M820 768 l0 -154 133 -77 c74 -42 138 -77 143 -77 4 0 68 34 141 76
l133 76 0 154 0 155 -22 -12 c-13 -7 -73 -41 -134 -75 -61 -35 -115 -64 -119
-64 -4 0 -58 29 -119 64 -61 34 -121 68 -133 75 l-23 12 0 -153z"/>
</g>
</svg>
